<?xml version="1.0" encoding="UTF-8"?> <svg xmlns="http://www.w3.org/2000/svg" width="22" height="22" viewBox="0 0 22 22" fill="none"> <g clip-path="url(#clip0)"> <path d="M21.8184 2.89743C21.6029 2.6344 21.2456 2.53686 20.9278 2.65391L0.747301 9.96095C0.344133 10.1078 0.0611434 10.4638 0.00860741 10.8901C-0.0434251 11.3144 0.14322 11.7261 0.493349 11.9631L3.37796 13.9361C3.65743 14.1273 4.01679 14.1478 4.31606 13.9896L10.5734 10.6834L5.6966 14.332C5.46765 14.5034 5.33086 14.7766 5.33086 15.0629V18.4425C5.33086 18.7912 5.5217 19.1105 5.82886 19.2763C6.13652 19.4422 6.50813 19.4257 6.80036 19.2326L8.99193 17.7761L11.1471 19.2484C11.3359 19.3781 11.5608 19.4464 11.7878 19.4464C11.8645 19.4464 11.9415 19.4385 12.0174 19.4227C12.32 19.3594 12.5877 19.1721 12.752 18.9087L21.8824 3.82374C22.0601 3.5333 22.0346 3.16163 21.8184 2.89743V2.89743ZM11.7396 18.0892L9.50772 16.5643C9.35247 16.4581 9.17354 16.4049 8.99478 16.4049C8.81989 16.4049 8.64482 16.4559 8.49158 16.5578L6.62059 17.8013V15.2536L15.232 8.81097C15.6165 8.52322 15.7134 7.99953 15.457 7.59288C15.2006 7.18623 14.6871 7.04883 14.2627 7.27318L3.91658 12.7397L1.47676 11.0709L20.0602 4.34222L11.7396 18.0892Z" fill="white"></path> </g> <defs> <clipPath id="clip0"> <rect width="22" height="22" fill="white"></rect> </clipPath> </defs> </svg> 