<?xml version="1.0" encoding="UTF-8"?> <svg xmlns="http://www.w3.org/2000/svg" width="26" height="26" viewBox="0 0 26 26" fill="none"> <g clip-path="url(#clip0)"> <path d="M13 0.780762C6.13945 0.780762 0.558594 6.28626 0.558594 13.0542C0.558594 19.8221 6.13945 25.3276 13 25.3276C19.8605 25.3276 25.4414 19.8221 25.4414 13.0542C25.4414 6.28626 19.8605 0.780762 13 0.780762ZM23.3188 13.5752H24.3699C24.243 16.2803 23.1461 18.735 21.4094 20.6136L20.668 19.8822C20.4598 19.6768 20.1246 19.6768 19.9215 19.8822C19.7133 20.0876 19.7133 20.4182 19.9215 20.6186L20.6629 21.35C18.7586 23.0633 16.2703 24.1453 13.5281 24.2706V23.2336C13.5281 22.943 13.2895 22.7126 13 22.7126C12.7055 22.7126 12.4719 22.948 12.4719 23.2336V24.2706C9.72969 24.1453 7.24141 23.0633 5.33711 21.35L6.07852 20.6186C6.28672 20.4132 6.28672 20.0826 6.07852 19.8822C5.87031 19.6768 5.53516 19.6768 5.33203 19.8822L4.59063 20.6136C2.85898 18.735 1.75703 16.2803 1.63008 13.5802H2.68125C2.97578 13.5802 3.20938 13.3447 3.20938 13.0592C3.20938 12.7736 2.9707 12.5382 2.68125 12.5382H1.63008C1.75703 9.83302 2.85391 7.37834 4.59063 5.49976L5.33203 6.23115C5.54023 6.43655 5.87539 6.43655 6.07852 6.23115C6.28672 6.02576 6.28672 5.69513 6.07852 5.49475L5.33711 4.76336C7.24141 3.05009 9.72969 1.96803 12.4719 1.84279V2.87976C12.4719 3.17032 12.7105 3.40076 13 3.40076C13.2945 3.40076 13.5281 3.16531 13.5281 2.87976V1.83778C16.2703 1.96302 18.7586 3.04508 20.6629 4.75835L19.9215 5.48974C19.7133 5.69513 19.7133 6.02576 19.9215 6.22615C20.1297 6.43154 20.4648 6.43154 20.668 6.22615L21.4094 5.49475C23.1461 7.37333 24.243 9.82801 24.3699 12.5332H23.3188C23.0242 12.5332 22.7906 12.7686 22.7906 13.0542C22.7906 13.3397 23.0242 13.5752 23.3188 13.5752Z" fill="#202020"></path> <path d="M18.4996 12.5487H13.5281V5.31494C13.5281 5.02438 13.2895 4.79395 13 4.79395C12.7055 4.79395 12.4719 5.02939 12.4719 5.31494V12.5487H10.3035C10.009 12.5487 9.77539 12.7842 9.77539 13.0697C9.77539 13.3553 10.0141 13.5907 10.3035 13.5907H12.4719V15.5645C12.4719 15.855 12.7105 16.0855 13 16.0855C13.2945 16.0855 13.5281 15.85 13.5281 15.5645V13.5907H18.4996C18.7941 13.5907 19.0277 13.3553 19.0277 13.0697C19.0277 12.7842 18.7891 12.5487 18.4996 12.5487V12.5487Z" fill="#202020"></path> </g> <defs> <clipPath id="clip0"> <rect width="26" height="25.6489" fill="white" transform="translate(0 0.23584)"></rect> </clipPath> </defs> </svg> 