<?xml version="1.0" encoding="UTF-8"?> <svg xmlns="http://www.w3.org/2000/svg" width="30" height="30" viewBox="0 0 30 30" fill="none"> <path d="M15.8575 13.0051C15.5282 13.3344 15.5282 13.8626 15.8575 14.1919C17.2183 15.5527 17.2183 17.7648 15.8575 19.1256L8.71168 26.2714C7.35087 27.6323 5.13877 27.6323 3.77796 26.2714L2.70298 25.1965C1.34217 23.8357 1.34217 21.6236 2.70298 20.2627L9.8488 13.1169C10.1781 12.7876 10.1781 12.2594 9.8488 11.9301C9.51947 11.6008 8.9913 11.6008 8.66197 11.9301L1.51616 19.0759C0.540596 20.0515 0 21.3502 0 22.7296C0 24.1091 0.534383 25.4077 1.51616 26.3833L2.59113 27.4583C3.59776 28.4649 4.92129 28.9682 6.24482 28.9682C7.56835 28.9682 8.89188 28.4649 9.89851 27.4583L17.0443 20.3125C19.0576 18.2992 19.0576 15.0183 17.0443 13.0051C16.7212 12.6758 16.1868 12.6758 15.8575 13.0051Z" fill="black"></path> <path d="M28.49 3.61617L27.415 2.54119C25.4018 0.527936 22.1209 0.527936 20.1077 2.54119L12.9618 9.68701C10.9486 11.7003 10.9486 14.9811 12.9618 16.9944C13.2912 17.3237 13.8193 17.3237 14.1487 16.9944C14.478 16.6651 14.478 16.1369 14.1487 15.8076C12.7879 14.4467 12.7879 12.2346 14.1487 10.8738L21.2945 3.72802C22.6553 2.36721 24.8674 2.36721 26.2282 3.72802L27.3032 4.803C28.664 6.16381 28.664 8.37591 27.3032 9.73672L20.1574 16.8825C19.828 17.2119 19.828 17.74 20.1574 18.0694C20.3189 18.2309 20.5364 18.3179 20.7477 18.3179C20.9589 18.3179 21.1764 18.2371 21.338 18.0694L28.4838 10.9235C29.4593 9.94799 29.9999 8.64931 29.9999 7.26986C29.9999 5.89041 29.4655 4.59173 28.49 3.61617Z" fill="black"></path> </svg> 