<?xml version="1.0" encoding="UTF-8"?> <svg xmlns="http://www.w3.org/2000/svg" width="30" height="30" viewBox="0 0 30 30" fill="none"> <g clip-path="url(#clip0)"> <path d="M23.5372 15.229C23.3342 15.229 23.1376 15.3114 22.9981 15.451C22.8586 15.5905 22.7761 15.7871 22.7761 15.99C22.7761 16.193 22.8586 16.3896 22.9981 16.5291C23.1376 16.6686 23.3342 16.7511 23.5372 16.7511C23.7401 16.7511 23.9367 16.6686 24.0762 16.5291C24.2157 16.3896 24.2982 16.193 24.2982 15.99C24.2982 15.7871 24.2157 15.5905 24.0762 15.451C23.9304 15.3051 23.7338 15.229 23.5372 15.229Z" fill="#202020"></path> <path d="M16.4089 6.35621C16.3201 6.76843 16.5865 7.16798 16.9987 7.25676C17.0495 7.26945 17.1065 7.27579 17.1573 7.27579C17.5124 7.27579 17.8232 7.02845 17.8993 6.6733C17.9881 6.26108 17.7217 5.86154 17.3095 5.77275C16.8973 5.68396 16.4977 5.94398 16.4089 6.35621Z" fill="#202020"></path> <path d="M21.8438 9.32452C21.495 9.55917 21.4062 10.0348 21.6409 10.3836C21.7868 10.5992 22.0277 10.7197 22.2751 10.7197C22.4209 10.7197 22.5668 10.6754 22.7 10.5866C23.0488 10.3519 23.1376 9.87627 22.9029 9.52746C22.6619 9.185 22.1926 9.08987 21.8438 9.32452Z" fill="#202020"></path> <path d="M19.4151 7.30754C19.1804 7.65635 19.2692 8.13199 19.618 8.36664C19.7512 8.45543 19.8971 8.49348 20.0429 8.49348C20.2903 8.49348 20.5249 8.37933 20.6771 8.15736C20.9118 7.80855 20.823 7.33291 20.4742 7.09826C20.1254 6.86995 19.6497 6.95873 19.4151 7.30754Z" fill="#202020"></path> <path d="M22.7444 13.0026C22.8205 13.3641 23.1376 13.6051 23.4864 13.6051C23.5371 13.6051 23.5879 13.5987 23.6449 13.586C24.0572 13.4973 24.3235 13.0977 24.2347 12.6855C24.1459 12.2733 23.7464 12.0069 23.3342 12.0957C22.922 12.1908 22.6556 12.5904 22.7444 13.0026Z" fill="#202020"></path> <path d="M14.0118 5.70312C13.8088 5.70312 13.6122 5.78557 13.4727 5.92509C13.3332 6.06462 13.2507 6.26122 13.2507 6.46416C13.2507 6.6671 13.3332 6.8637 13.4727 7.00322C13.6122 7.14275 13.8088 7.22519 14.0118 7.22519C14.2147 7.22519 14.4113 7.14275 14.5508 7.00322C14.6904 6.8637 14.7728 6.6671 14.7728 6.46416C14.7728 6.26122 14.6904 6.06462 14.5508 5.92509C14.4113 5.78557 14.2147 5.70312 14.0118 5.70312Z" fill="#202020"></path> <path d="M29.042 15.4126C28.8391 15.4126 28.6425 15.495 28.503 15.6346C28.3635 15.7741 28.281 15.9707 28.281 16.1736C28.281 16.3766 28.3635 16.5732 28.503 16.7127C28.6425 16.8522 28.8391 16.9347 29.042 16.9347C29.245 16.9347 29.4416 16.8522 29.5811 16.7127C29.7206 16.5732 29.8031 16.3766 29.8031 16.1736C29.8031 15.9707 29.7206 15.7741 29.5811 15.6346C29.4352 15.4887 29.2386 15.4126 29.042 15.4126Z" fill="#202020"></path> <path d="M28.5409 7.64995C28.3506 7.27578 27.894 7.12357 27.5198 7.30748C27.1456 7.49774 26.9934 7.95436 27.1774 8.32853C27.3105 8.5949 27.5769 8.7471 27.8559 8.7471C27.9701 8.7471 28.0843 8.72173 28.1984 8.66466C28.5789 8.48074 28.7311 8.02412 28.5409 7.64995Z" fill="#202020"></path> <path d="M21.6789 2.82385C21.7867 2.88093 21.9072 2.90629 22.0214 2.90629C22.3004 2.90629 22.5668 2.75409 22.7 2.48773C22.8902 2.11355 22.738 1.65693 22.3575 1.46667C21.9833 1.27642 21.5267 1.42862 21.3364 1.80914C21.1525 2.17697 21.2984 2.63359 21.6789 2.82385Z" fill="#202020"></path> <path d="M16.5991 1.53017C16.6117 1.53017 16.6181 1.53017 16.6244 1.53017C17.0303 1.53017 17.3728 1.20673 17.3855 0.794508C17.3981 0.37594 17.0747 0.0207918 16.6498 0.0081079C16.2312 -0.0109179 15.8761 0.318863 15.8634 0.73743C15.8507 1.156 16.1805 1.51115 16.5991 1.53017Z" fill="#202020"></path> <path d="M19.2056 1.90462C19.269 1.92365 19.3325 1.92999 19.3959 1.92999C19.7383 1.92999 20.0428 1.70168 20.1315 1.35922C20.233 0.953334 19.992 0.534766 19.5798 0.433296C19.1739 0.331825 18.7553 0.572818 18.6539 0.985044C18.5524 1.38459 18.7997 1.79681 19.2056 1.90462Z" fill="#202020"></path> <path d="M26.9428 5.15794C26.6764 4.82816 26.2008 4.77742 25.871 5.04379C25.5476 5.31015 25.4905 5.78579 25.7569 6.11557C25.9091 6.29949 26.1247 6.40096 26.3467 6.40096C26.5179 6.40096 26.6828 6.34388 26.8223 6.22973C27.1521 5.96337 27.2028 5.48772 26.9428 5.15794Z" fill="#202020"></path> <path d="M28.4776 13.4088C28.4903 13.821 28.8327 14.1445 29.2386 14.1445C29.245 14.1445 29.2576 14.1445 29.264 14.1445C29.6826 14.1318 30.0123 13.7767 29.9997 13.3581C29.987 12.9395 29.6318 12.6097 29.2133 12.6224C28.7883 12.6351 28.4586 12.9839 28.4776 13.4088Z" fill="#202020"></path> <path d="M28.839 11.373C28.9024 11.373 28.9658 11.3666 29.0292 11.3476C29.4351 11.2461 29.6825 10.8276 29.581 10.4217C29.4795 10.0158 29.061 9.76846 28.6551 9.86993C28.2492 9.9714 28.0019 10.39 28.1033 10.7958C28.1858 11.1447 28.4965 11.373 28.839 11.373Z" fill="#202020"></path> <path d="M23.8925 4.25072C24.032 4.36488 24.2033 4.42196 24.3682 4.42196C24.5901 4.42196 24.8121 4.32683 24.958 4.13657C25.2243 3.80679 25.1736 3.33114 24.8438 3.06478C24.514 2.79842 24.0384 2.84916 23.772 3.17894C23.512 3.50872 23.5627 3.98436 23.8925 4.25072Z" fill="#202020"></path> <path d="M13.834 1.72031C14.037 1.72031 14.2336 1.63786 14.3731 1.49834C14.5126 1.35882 14.5951 1.16222 14.5951 0.959274C14.5951 0.756332 14.5126 0.559732 14.3731 0.42021C14.2336 0.280687 14.037 0.198242 13.834 0.198242C13.6311 0.198242 13.4345 0.280687 13.295 0.42021C13.1554 0.559732 13.073 0.756332 13.073 0.959274C13.073 1.16222 13.1554 1.35882 13.295 1.49834C13.4345 1.6442 13.6311 1.72031 13.834 1.72031Z" fill="#202020"></path> <path d="M21.6219 19.6366C21.0512 19.0721 20.3726 18.7677 19.6686 18.7677C18.9647 18.7677 18.2924 19.0658 17.7217 19.6302L17.5694 19.7761C17.0114 20.3278 16.4406 20.8923 15.8825 21.4694C15.7747 21.4123 15.6732 21.3616 15.5654 21.3108C15.3054 21.184 15.0644 21.0635 14.8424 20.924C13.1491 19.8585 11.589 18.4379 10.0796 16.5861C9.35665 15.6982 8.84929 14.9055 8.49414 14.1127C8.98881 13.6371 9.4708 13.1424 9.94645 12.6668L10.3143 12.2989C11.5129 11.094 11.5066 9.5402 10.3079 8.32889C9.94645 7.9674 9.57861 7.59957 9.22347 7.24442C9.06492 7.08587 8.90637 6.92732 8.75416 6.77512C8.58927 6.61023 8.41804 6.43899 8.25315 6.2741C7.89166 5.91261 7.52383 5.53844 7.14965 5.17061C6.57888 4.60618 5.90029 4.30811 5.19634 4.30811C4.49239 4.30811 3.82014 4.60618 3.24937 5.17061C2.97666 5.43697 2.7103 5.70967 2.44394 5.97603C2.06343 6.36289 1.67023 6.76243 1.27068 7.13661C0.522336 7.8469 0.103769 8.74746 0.0213238 9.80656C-0.105515 11.4681 0.357446 12.9712 0.776014 14.0937C1.72096 16.6305 3.16058 19.0341 5.17731 21.4377C7.69506 24.4311 10.7265 26.8029 14.1892 28.4899C16.0981 29.4158 17.7343 29.8915 19.3325 29.9802C19.453 29.9866 19.5672 29.9929 19.6813 29.9929C21.0385 29.9929 22.1547 29.5173 22.9981 28.5723C23.3596 28.1728 23.7401 27.7986 24.1524 27.3991C24.3553 27.1961 24.5709 26.9932 24.7802 26.7839C25.9725 25.5789 25.9788 24.0252 24.7929 22.8329C23.7338 21.7357 22.662 20.6639 21.6219 19.6366ZM23.7148 25.6931C23.5182 25.896 23.3089 26.0926 23.106 26.2892C22.7001 26.6888 22.2752 27.0947 21.882 27.5386C21.2731 28.2172 20.5058 28.5026 19.4403 28.4455C18.0514 28.3694 16.5991 27.9445 14.8805 27.1073C11.608 25.5155 8.74782 23.2768 6.3696 20.4483C4.46068 18.1779 3.10984 15.9265 2.22832 13.5546C1.68925 12.1023 1.48631 10.9798 1.56241 9.91437C1.61315 9.2231 1.86048 8.69038 2.34247 8.23376C2.7547 7.84056 3.15424 7.43468 3.54744 7.04148C3.80746 6.78146 4.07382 6.50876 4.33384 6.25508C4.53044 6.06482 4.84119 5.83017 5.21537 5.83017C5.58954 5.83017 5.90029 6.05848 6.10324 6.25508C6.47107 6.61657 6.8389 6.9844 7.19405 7.34589C7.36528 7.51712 7.53017 7.68201 7.7014 7.85325C7.85995 8.01179 8.0185 8.17034 8.17705 8.32255C8.5322 8.6777 8.90003 9.03919 9.25518 9.40068C9.864 10.0158 9.87034 10.612 9.26152 11.2272L8.89368 11.6013C8.37999 12.1214 7.84727 12.6541 7.31454 13.1678C7.04184 13.4341 6.76914 13.8844 7.04184 14.5313C7.45407 15.527 8.05655 16.4846 8.92539 17.5564C10.5426 19.5414 12.2232 21.0698 14.0624 22.2241C14.3477 22.4016 14.6395 22.5475 14.9249 22.687C15.0898 22.7695 15.2483 22.8456 15.4005 22.928C15.5971 23.0358 15.7937 23.0866 15.9903 23.0866C16.3074 23.0866 16.5991 22.9534 16.8528 22.687C17.449 22.0719 18.0641 21.463 18.6666 20.8669L18.8188 20.721C19.0154 20.5244 19.3262 20.2961 19.694 20.2961C20.0618 20.2961 20.3789 20.5308 20.5755 20.721C21.6093 21.7484 22.681 22.8139 23.7528 23.892C24.3173 24.4818 24.3173 25.0906 23.7148 25.6931Z" fill="#202020"></path> </g> <defs> <clipPath id="clip0"> <rect width="30" height="30" fill="white"></rect> </clipPath> </defs> </svg> 