<?xml version="1.0" encoding="UTF-8"?> <svg xmlns="http://www.w3.org/2000/svg" width="30" height="30" viewBox="0 0 30 30" fill="none"> <path d="M18.3926 22.0723C20.8125 18.0586 23.8711 12.416 23.8711 9.51562C23.8711 4.62305 19.8926 0.644531 15 0.644531C10.1074 0.644531 6.12891 4.62305 6.12891 9.51562C6.12891 12.416 9.1875 18.0586 11.6074 22.0723C8.73633 22.2891 2.20312 23.0684 2.20312 25.6523C2.20312 28.1953 8.83594 29.3555 15.0059 29.3555C21.1699 29.3555 27.8086 28.1953 27.8086 25.6523C27.8027 23.0684 21.2637 22.2891 18.3926 22.0723ZM7.35352 9.51562C7.35352 5.29687 10.7871 1.86328 15 1.86328C19.2188 1.86328 22.6523 5.29687 22.6523 9.51562C22.6523 13.2012 16.7812 22.4473 15 25.166C13.2188 22.4473 7.35352 13.2012 7.35352 9.51562ZM15 28.1309C7.50586 28.1309 3.42188 26.4902 3.42188 25.6465C3.42188 24.9961 6.11719 23.5957 12.3281 23.2383C13.4941 25.1191 14.3789 26.4492 14.4961 26.6074C14.6543 26.8184 15.1172 27.0703 15.5098 26.6074C15.6328 26.4609 16.5117 25.1191 17.6777 23.2383C23.8887 23.5957 26.584 24.9902 26.584 25.6465C26.5781 26.4961 22.4941 28.1309 15 28.1309Z" fill="#202020"></path> <path d="M18.8613 9.51562C18.8613 7.38281 17.1328 5.6543 15 5.6543C12.8672 5.6543 11.1387 7.38281 11.1387 9.51562C11.1387 11.6484 12.8672 13.377 15 13.377C17.1328 13.377 18.8613 11.6484 18.8613 9.51562ZM12.3574 9.51562C12.3574 8.05664 13.541 6.87305 15 6.87305C16.459 6.87305 17.6426 8.05664 17.6426 9.51562C17.6426 10.9746 16.459 12.1582 15 12.1582C13.541 12.1582 12.3574 10.9746 12.3574 9.51562Z" fill="#202020"></path> </svg> 