<?xml version="1.0" encoding="UTF-8"?> <svg xmlns="http://www.w3.org/2000/svg" width="22" height="22" viewBox="0 0 22 22" fill="none"> <path d="M21.0755 7.76476C21.0757 5.69856 20.2658 3.75087 18.7953 2.28036C17.3248 0.80986 15.3771 0 13.3107 0H8.71007C8.7099 0 8.7099 0 8.7099 0C6.64388 0 4.69601 0.80986 3.22568 2.2802C1.75517 3.75087 0.945312 5.69856 0.945312 7.76476V11.3812C0.945312 12.9814 1.43341 14.5206 2.3569 15.8326C3.17163 16.9901 4.26733 17.8943 5.54482 18.4675V20.5448C5.54482 21.6188 6.14621 22 6.66116 22C7.02908 22 7.397 21.8184 7.75519 21.4604L10.0695 19.1461L13.3109 19.1459C15.3771 19.1459 17.3248 18.3361 18.7953 16.8657C20.2658 15.3952 21.0757 13.4474 21.0757 11.3812L21.0755 7.76476ZM13.3109 17.8569L9.80258 17.857C9.63155 17.857 9.46773 17.9249 9.34688 18.0457L6.84378 20.5488C6.84059 20.5522 6.83723 20.5553 6.83388 20.5585C6.83388 20.554 6.83388 20.5493 6.83388 20.5448V18.0373C6.83388 17.7699 6.66888 17.5304 6.41913 17.4351C3.9162 16.48 2.23454 14.0471 2.23454 11.3812V7.76476C2.23454 6.04282 2.91029 4.41873 4.13725 3.1916C5.36421 1.96481 6.98813 1.28906 8.71007 1.28906H13.3107C15.0327 1.28906 16.6568 1.96481 17.8837 3.19177C19.1109 4.4189 19.7866 6.04298 19.7864 7.76476L19.7866 11.3812C19.7864 14.952 16.8815 17.8569 13.3109 17.8569Z" fill="white"></path> <path d="M12.7246 10.542C12.473 10.2902 12.0649 10.2902 11.8132 10.542L11.2925 11.0625L9.27498 9.04512L9.79564 8.52463C9.91649 8.40378 9.98447 8.23979 9.98447 8.06876C9.98447 7.89789 9.91649 7.7339 9.79564 7.61305L7.35481 5.17223C7.23396 5.05138 7.07014 4.9834 6.89911 4.9834C6.72824 4.9834 6.56425 5.05138 6.4434 5.17223L4.73472 6.88091C3.81073 7.8049 3.81073 9.30864 4.73489 10.2331L10.1045 15.6031C10.5509 16.0494 11.1463 16.2951 11.7806 16.2951C12.4151 16.2951 13.0104 16.0494 13.4569 15.6031L15.1656 13.8945C15.2864 13.7735 15.3544 13.6097 15.3544 13.4387C15.3544 13.2678 15.2864 13.1038 15.1656 12.983L12.7246 10.542ZM12.5453 14.6913C12.3424 14.8942 12.0708 15.006 11.7806 15.006C11.4904 15.006 11.2188 14.8942 11.0159 14.6913L5.64647 9.32156C5.22484 8.89993 5.22467 8.21378 5.6463 7.79231L6.89911 6.53934L8.42836 8.06876L7.9077 8.58925C7.78685 8.7101 7.71887 8.87408 7.71887 9.04495C7.71887 9.21599 7.78685 9.37981 7.9077 9.50082L10.8366 12.4297C11.0884 12.6814 11.4964 12.6815 11.7482 12.4297L12.2689 11.9093L13.7981 13.4385L12.5453 14.6913Z" fill="white"></path> <path d="M11.167 2.85107C10.811 2.85107 10.5225 3.1396 10.5225 3.49561C10.5225 3.85144 10.811 4.14014 11.167 4.14014C12.642 4.14014 14.0289 4.71451 15.0719 5.75768C16.1151 6.80067 16.6895 8.18742 16.6895 9.66263C16.6895 10.0185 16.978 10.3072 17.334 10.3072C17.6899 10.3072 17.9785 10.0186 17.9785 9.66263C17.9785 7.84317 17.2701 6.13264 15.9835 4.8461C14.697 3.55956 12.9865 2.85107 11.167 2.85107Z" fill="white"></path> <path d="M13.9281 9.66277C13.9281 10.0186 14.2168 10.3073 14.5726 10.3073C14.9286 10.3073 15.2171 10.0186 15.2171 9.66277C15.2171 7.42957 13.4002 5.61279 11.167 5.61279C10.811 5.61279 10.5225 5.90132 10.5225 6.25732C10.5225 6.61333 10.811 6.90186 11.167 6.90186C12.6895 6.90186 13.9281 8.1404 13.9281 9.66277Z" fill="white"></path> </svg> 