<?xml version="1.0" encoding="UTF-8"?> <svg xmlns="http://www.w3.org/2000/svg" width="22" height="23" viewBox="0 0 22 23" fill="none"> <g clip-path="url(#clip0)">
 <path d="M16.0448 0.00012207H5.95519C2.67144 0.00012207 0 2.68225 0 5.97913V16.1092C0 19.4059 2.67144 22.0881 5.95519 22.0881H16.0449C19.3285 22.0881 22 19.4059 22 16.1092V5.97913C22 2.68225 19.3285 0.00012207 16.0448 0.00012207V0.00012207ZM20.7102 16.1092C20.7102 18.6919 18.6173 20.7932 16.0448 20.7932H5.95519C3.38261 20.7932 1.28973 18.6919 1.28973 16.1092V5.97913C1.28973 3.39626 3.38261 1.29501 5.95519 1.29501H16.0449C18.6173 1.29501 20.7102 3.39626 20.7102 5.97913V16.1092Z" fill="#1c3334"></path>
  <path d="M11.0001 5.00598C7.68309 5.00598 4.98462 7.71524 4.98462 11.0455C4.98462 14.3757 7.68309 17.085 11.0001 17.085C14.317 17.085 17.0155 14.3757 17.0155 11.0455C17.0155 7.71524 14.317 5.00598 11.0001 5.00598ZM11.0001 15.7901C8.39442 15.7901 6.27435 13.6617 6.27435 11.0455C6.27435 8.42942 8.39442 6.30087 11.0001 6.30087C13.6059 6.30087 15.7258 8.42942 15.7258 11.0455C15.7258 13.6617 13.6059 15.7901 11.0001 15.7901Z" fill="#1c3334"></path>
   <path d="M17.1593 2.86047C16.1791 2.86047 15.3818 3.66133 15.3818 4.64558C15.3818 5.63 16.1791 6.43085 17.1593 6.43085C18.1396 6.43085 18.937 5.63 18.937 4.64558C18.937 3.66116 18.1396 2.86047 17.1593 2.86047ZM17.1593 5.13543C16.8904 5.13543 16.6716 4.91562 16.6716 4.64558C16.6716 4.37537 16.8904 4.15573 17.1593 4.15573C17.4284 4.15573 17.6473 4.37537 17.6473 4.64558C17.6473 4.91562 17.4284 5.13543 17.1593 5.13543Z" fill="#1c3334"></path> </g> <defs> <clipPath id="clip0"> <rect width="22" height="22.088" fill="white" transform="translate(0 0.00012207)"></rect> </clipPath> </defs> </svg> 