<?xml version="1.0" encoding="UTF-8"?> <svg xmlns="http://www.w3.org/2000/svg" width="22" height="23" viewBox="0 0 22 23" fill="none"> <g clip-path="url(#clip0)">
 <path d="M14.3862 10.0523L9.52588 7.38152C9.24641 7.22796 8.91609 7.23369 8.64217 7.39669C8.36807 7.55986 8.20459 7.84811 8.20459 8.16805V13.4637C8.20459 13.7821 8.36707 14.0699 8.63931 14.2332C8.78148 14.3185 8.93909 14.3613 9.09703 14.3613C9.24171 14.3613 9.38673 14.3254 9.52017 14.2533L14.3807 11.6285C14.6692 11.4726 14.8493 11.1714 14.8506 10.8422C14.8518 10.513 14.6739 10.2104 14.3862 10.0523ZM9.49382 12.7975V8.83962L13.1264 10.8358L9.49382 12.7975Z" fill="#1c3334"></path>
  <path d="M21.8382 6.62422L21.8372 6.61411C21.8186 6.43632 21.6331 4.85494 20.8674 4.0506C19.9823 3.10454 18.979 2.98961 18.4964 2.9345C18.4565 2.92995 18.4199 2.92574 18.3871 2.92136L18.3487 2.91731C15.4402 2.70498 11.0479 2.676 11.0039 2.67583L11 2.67566L10.9962 2.67583C10.9522 2.676 6.55979 2.70498 3.62516 2.91731L3.58639 2.92136C3.55517 2.92557 3.52076 2.92945 3.48333 2.93383C3.00631 2.9891 2.01366 3.1042 1.12609 4.08448C0.39679 4.88022 0.185974 6.42773 0.164322 6.60164L0.161804 6.62422C0.155258 6.6982 0 8.45939 0 10.2275V11.8803C0 13.6484 0.155258 15.4096 0.161804 15.4838L0.162979 15.4949C0.18161 15.6698 0.366913 17.2222 1.12911 18.0269C1.96129 18.9412 3.01352 19.0622 3.5795 19.1273C3.66897 19.1376 3.74601 19.1463 3.79854 19.1556L3.8494 19.1627C5.52871 19.3231 10.7939 19.4021 11.0171 19.4053L11.0239 19.4055L11.0306 19.4053C11.0745 19.4052 15.4668 19.3762 18.3752 19.1639L18.4137 19.1598C18.4504 19.1549 18.4917 19.1505 18.537 19.1458C19.0114 19.0953 19.9986 18.9903 20.874 18.0233C21.6032 17.2274 21.8142 15.6799 21.8357 15.5062L21.8382 15.4836C21.8448 15.4094 22.0002 13.6484 22.0002 11.8803V10.2275C22 8.45939 21.8448 6.69837 21.8382 6.62422ZM20.7108 11.8803C20.7108 13.5168 20.5685 15.2022 20.555 15.3569C20.5003 15.783 20.2779 16.7621 19.9226 17.1499C19.3747 17.755 18.812 17.815 18.4011 17.8587C18.3514 17.8639 18.3054 17.869 18.2638 17.8742C15.4506 18.0784 11.2241 18.1098 11.0294 18.111C10.811 18.1078 5.62287 18.028 3.99476 17.8762C3.91134 17.8626 3.8212 17.8521 3.7262 17.8413C3.24431 17.7859 2.58468 17.7101 2.07744 17.1499L2.06552 17.1371C1.7164 16.7719 1.50038 15.8563 1.4455 15.3619C1.43526 15.245 1.28923 13.5397 1.28923 11.8803V10.2275C1.28923 8.59285 1.43123 6.90935 1.44499 6.75145C1.51029 6.24943 1.73688 5.32966 2.07744 4.95791C2.64208 4.33439 3.23743 4.2653 3.6312 4.21963C3.6688 4.21525 3.70388 4.2112 3.73627 4.20699C6.59034 4.00173 10.8473 3.97123 11 3.97005C11.1528 3.97106 15.4082 4.00173 18.2369 4.20699C18.2717 4.21137 18.3096 4.21575 18.3504 4.22047C18.7554 4.26681 19.3675 4.33692 19.9293 4.93853L19.9345 4.94409C20.2836 5.30927 20.4997 6.24084 20.5545 6.74522C20.5643 6.8556 20.7108 8.56454 20.7108 10.2275V11.8803Z" fill="#1c3334"></path> </g> <defs> <clipPath id="clip0"> <rect width="22.0001" height="22.0881" fill="white" transform="translate(0 0.00012207)"></rect> </clipPath> </defs> </svg> 