<?xml version="1.0" encoding="UTF-8"?> <svg xmlns="http://www.w3.org/2000/svg" width="22" height="22" viewBox="0 0 22 22" fill="none"> <g clip-path="url(#clip0)">
 <path d="M12.4853 21.9572H8.95531C8.36569 21.9572 7.88605 21.4785 7.88605 20.89V12.9435H5.82658C5.23696 12.9435 4.75732 12.4646 4.75732 11.8763V8.47118C4.75732 7.88271 5.23696 7.40401 5.82658 7.40401H7.88605V5.69885C7.88605 4.00813 8.41799 2.56969 9.42418 1.53928C10.4349 0.504166 11.8474 -0.0428467 13.509 -0.0428467L16.2011 -0.0384827C16.7898 -0.0374756 17.2685 0.441223 17.2685 1.02869V4.19025C17.2685 4.77872 16.7891 5.25742 16.1996 5.25742L14.387 5.25809C13.8342 5.25809 13.6935 5.3687 13.6634 5.4026C13.6138 5.45883 13.5547 5.61778 13.5547 6.0567V7.40384H16.0634C16.2523 7.40384 16.4352 7.45033 16.5925 7.53795C16.9317 7.72711 17.1426 8.08479 17.1426 8.47134L17.1412 11.8765C17.1412 12.4646 16.6616 12.9433 16.072 12.9433H13.5547V20.89C13.5547 21.4785 13.0749 21.9572 12.4853 21.9572ZM9.17831 20.6674H12.2623V12.3661C12.2623 11.9731 12.5827 11.6536 12.9762 11.6536H15.849L15.8502 8.69374H12.976C12.5825 8.69374 12.2623 8.37416 12.2623 7.98123V6.0567C12.2623 5.55283 12.3136 4.9798 12.6947 4.5491C13.1552 4.02844 13.8808 3.96835 14.3867 3.96835L15.9763 3.96768V1.25092L13.508 1.24689C10.8377 1.24689 9.17831 2.95288 9.17831 5.69885V7.98123C9.17831 8.37399 8.85811 8.69374 8.46458 8.69374H6.04958V11.6536H8.46458C8.85811 11.6536 9.17831 11.9731 9.17831 12.3661V20.6674ZM16.1986 1.25125H16.1988H16.1986Z" fill="#1c3334"></path> </g> <defs> <clipPath id="clip0"> <rect width="22" height="22" fill="white" transform="translate(0 0.00012207)"></rect> </clipPath> </defs> </svg> 