<?xml version="1.0" encoding="iso-8859-1"?>
<!-- Generator: Adobe Illustrator 19.0.0, SVG Export Plug-In . SVG Version: 6.00 Build 0)  -->
<svg version="1.1" id="Capa_1" xmlns="http://www.w3.org/2000/svg" xmlns:xlink="http://www.w3.org/1999/xlink" x="0px" y="0px"
	 viewBox="0 0 512 512" style="enable-background:new 0 0 512 512;" xml:space="preserve">
<g>
	<g>
		<path fill="#da7b93" d="M186.732,105.906c-38.598,0-70,31.402-70,70c0,38.598,31.402,70,70,70c38.598,0,70-31.402,70-70
			C256.732,137.308,225.33,105.906,186.732,105.906z M186.732,225.906c-27.57,0-50-22.43-50-50s22.43-50,50-50s50,22.43,50,50
			S214.302,225.906,186.732,225.906z"/>
	</g>
</g>
<g>
	<g>
		<path fill="#da7b93" d="M310.514,11.186C304.081,4.077,294.893,0,285.305,0H87.991c-9.587,0-18.775,4.077-25.208,11.186
			c-6.434,7.108-9.577,16.657-8.623,26.197l33.333,333.325c0.865,8.651,5.021,16.194,11.155,21.461V482c0,16.542,13.458,30,30,30
			h116c16.542,0,30-13.458,30-30v-89.831c6.134-5.267,10.291-12.81,11.155-21.461l17.537-175.373
			c0.55-5.495-3.46-10.396-8.955-10.945c-5.504-0.565-10.396,3.46-10.945,8.955l-17.537,175.373
			C265.26,375.149,259.901,380,253.437,380H119.861c-6.464,0-11.823-4.851-12.467-11.282L77.322,68h90.168c5.522,0,10-4.478,10-10
			s-4.478-10-10-10H75.322l-1.261-12.606c-0.398-3.986,0.863-7.817,3.551-10.788C80.3,21.636,83.986,20,87.991,20h197.313
			c4.006,0,7.692,1.636,10.381,4.606c2.688,2.97,3.948,6.801,3.55,10.786l-8.706,87.062c-0.55,5.495,3.46,10.396,8.955,10.945
			c5.503,0.546,10.396-3.46,10.945-8.955l8.706-87.062C320.089,27.842,316.947,18.294,310.514,11.186z M118.649,400h1.212h133.576
			h1.212v51.924h-38.421c-8.301-6.898-18.651-10.653-29.579-10.653c-10.928,0-21.278,3.755-29.579,10.653h-38.421V400z
			 M118.649,471.924h42.281c2.652,0,5.195-1.054,7.071-2.929c4.98-4.981,11.604-7.725,18.647-7.725
			c7.043,0,13.667,2.743,18.647,7.725c1.876,1.875,4.419,2.929,7.071,2.929h42.281V482c0.002,5.514-4.485,10-9.998,10h-116
			c-5.514,0-10-4.486-10-10V471.924z"/>
	</g>
</g>
<g>
	<g>
		<path fill="#da7b93" d="M304.019,151.65c-1.86-1.87-4.43-2.93-7.07-2.93c-2.63,0-5.21,1.061-7.07,2.93c-1.859,1.86-2.93,4.431-2.93,7.07
			c0,2.63,1.07,5.21,2.93,7.07c1.86,1.859,4.44,2.93,7.07,2.93s5.21-1.07,7.07-2.93c1.869-1.87,2.93-4.44,2.93-7.07
			S305.888,153.51,304.019,151.65z"/>
	</g>
</g>
<g>
	<g>
		<path fill="#da7b93" d="M224.482,273.906h-75.5c-5.522,0-10,4.478-10,10c0,5.522,4.478,10,10,10h75.5c5.522,0,10-4.477,10-10
			C234.482,278.384,230.004,273.906,224.482,273.906z"/>
	</g>
</g>
<g>
	<g>
		<path fill="#da7b93" d="M202.482,313.906h-31.5c-5.522,0-10,4.478-10,10c0,5.522,4.478,10,10,10h31.5c5.522,0,10-4.478,10-10
			C212.482,318.384,208.004,313.906,202.482,313.906z"/>
	</g>
</g>
<g>
	<g>
		<path fill="#da7b93" d="M441.476,339.528c-46.632-58.263-34.451-89.386-33.618-91.317c2.233-3.824,1.575-8.483-1.474-11.714
			c-3.076-3.258-8.054-3.88-12.021-1.801c-2.105,1.103-51.671,27.48-60.202,68.167c-3.888,18.544,1.171,36.73,15.034,54.053
			c45.673,57.065,36.505,84.089,35.617,86.326c-2.361,3.726-1.82,8.291,1.096,11.631c1.872,2.146,4.578,3.213,7.341,3.213
			c1.598,0,3.215-0.357,4.699-1.07c2.029-0.974,49.808-24.297,58.638-63.017C460.777,375.619,455.694,357.293,441.476,339.528z
			 M437.097,389.505c-3.812,16.812-18.858,30.559-31.066,39.259c-1.381-17.833-10.265-45.667-41.221-84.346
			c-10.08-12.594-13.706-24.829-11.084-37.404c3.735-17.919,19.291-33.076,32.059-42.841c0.071,2.04,0.227,4.2,0.486,6.476
			c2.813,24.69,16.134,52.07,39.59,81.378C436.208,364.954,439.883,377.213,437.097,389.505z"/>
	</g>
</g>
<g>
	<g>
		<path fill="#da7b93" d="M219.059,50.93C217.2,49.07,214.62,48,211.99,48s-5.21,1.069-7.07,2.93c-1.86,1.861-2.93,4.44-2.93,7.07
			s1.069,5.21,2.93,7.069c1.86,1.86,4.44,2.931,7.07,2.931s5.209-1.07,7.069-2.931c1.86-1.859,2.931-4.439,2.931-7.069
			S220.92,52.79,219.059,50.93z"/>
	</g>
</g>
<g>
</g>
<g>
</g>
<g>
</g>
<g>
</g>
<g>
</g>
<g>
</g>
<g>
</g>
<g>
</g>
<g>
</g>
<g>
</g>
<g>
</g>
<g>
</g>
<g>
</g>
<g>
</g>
<g>
</g>
</svg>
