<?xml version="1.0" encoding="iso-8859-1"?>
<!-- Generator: Adobe Illustrator 19.0.0, SVG Export Plug-In . SVG Version: 6.00 Build 0)  -->
<svg version="1.1" id="Capa_1" xmlns="http://www.w3.org/2000/svg" xmlns:xlink="http://www.w3.org/1999/xlink" x="0px" y="0px"
	 viewBox="0 0 512 512" style="enable-background:new 0 0 512 512;" xml:space="preserve">
<g>
	<g>
		<path fill="#da7b93" d="M338.769,2.93C336.899,1.069,334.33,0,331.7,0c-2.641,0-5.221,1.069-7.08,2.93c-1.86,1.86-2.931,4.44-2.931,7.07
			s1.07,5.21,2.931,7.069C326.49,18.93,329.06,20,331.7,20c2.63,0,5.199-1.07,7.069-2.931c1.86-1.859,2.92-4.439,2.92-7.069
			S340.629,4.79,338.769,2.93z"/>
	</g>
</g>
<g>
	<g>
		<path fill="#da7b93" d="M398,0h-20.5c-5.522,0-10,4.478-10,10s4.478,10,10,10H398c51.832,0,94,42.168,94,94v136
			c0,37.058-21.805,70.221-54.59,85.362c0.375-3.748,0.59-7.535,0.59-11.362v-45.5c0-5.522-4.478-10-10-10c-5.522,0-10,4.478-10,10
			V324c0,37.047-21.794,70.202-54.564,85.35c0.371-3.734,0.564-7.52,0.564-11.35V262c0-62.859-51.141-114-114-114H114
			c-3.831,0-7.617,0.193-11.351,0.564c11.567-25.064,33.629-43.676,59.968-51.061c0.933-0.116,1.838-0.356,2.689-0.72
			C172.609,94.968,180.214,94,188,94h136c51.832,0,94,42.168,94,94v17.5c0,5.522,4.478,10,10,10c5.522,0,10-4.478,10-10V188
			c0-62.859-51.141-114-114-114H188c-3.828,0-7.615,0.213-11.362,0.587C191.765,41.785,224.861,20,262,20h22.5
			c5.522,0,10-4.478,10-10s-4.478-10-10-10H262c-49.847,0-93.691,32.368-108.631,79.401c-34.642,11.05-62.647,38.28-73.994,73.981
			C33.392,168.074,0,211.208,0,262v136c0,62.859,51.141,114,114,114h136c50.789,0,93.92-33.389,108.615-79.366
			c35.656-11.342,62.887-39.39,73.958-73.987C479.587,343.714,512,299.75,512,250V114C512,51.141,460.859,0,398,0z M344,397.999
			C344,449.832,301.832,492,250,492H114c-51.832,0-94-42.168-94-94V262c0-43.019,29.048-79.378,68.559-90.5
			c0.934-0.11,1.837-0.353,2.691-0.711c7.288-1.818,14.907-2.79,22.75-2.79h136c51.832,0,94,42.168,94,94V397.999z"/>
	</g>
</g>
<g>
	<g>
		<path fill="#da7b93" d="M435.069,235.93C433.21,234.069,430.63,233,428,233s-5.21,1.069-7.07,2.93c-1.86,1.861-2.93,4.44-2.93,7.07
			s1.069,5.21,2.93,7.069c1.86,1.86,4.44,2.931,7.07,2.931s5.21-1.07,7.069-2.931C436.93,248.21,438,245.63,438,243
			S436.93,237.79,435.069,235.93z"/>
	</g>
</g>
<g>
	<g>
		<path fill="#da7b93" d="M78.757,228.301c-4.596-3.06-10.805-1.817-13.866,2.78c-2.18,3.273-4.071,6.763-5.621,10.371
			c-2.181,5.074,0.166,10.955,5.24,13.136c1.287,0.553,2.625,0.814,3.942,0.814c3.877,0,7.565-2.269,9.192-6.056
			c1.073-2.497,2.383-4.912,3.893-7.18C84.599,237.57,83.354,231.362,78.757,228.301z"/>
	</g>
</g>
<g>
	<g>
		<path fill="#da7b93" d="M81.346,417.542c-1.494-2.28-2.786-4.706-3.838-7.209c-2.141-5.092-8.003-7.482-13.094-5.344
			c-5.092,2.141-7.483,8.003-5.344,13.095c1.521,3.619,3.388,7.124,5.545,10.418c1.92,2.931,5.115,4.521,8.375,4.521
			c1.879,0,3.78-0.529,5.47-1.636C83.08,428.361,84.372,422.162,81.346,417.542z"/>
	</g>
</g>
<g>
	<g>
		<path fill="#da7b93" d="M124.427,438h-5.273c-1.291,0-2.595-0.055-3.875-0.163c-5.509-0.461-10.343,3.617-10.809,9.119
			c-0.467,5.504,3.616,10.343,9.119,10.809c1.84,0.156,3.712,0.235,5.564,0.235h5.273c5.522,0,10-4.478,10-10
			C134.426,442.478,129.949,438,124.427,438z"/>
	</g>
</g>
<g>
	<g>
		<path fill="#da7b93" d="M64,344.786c-5.522,0-10,4.478-10,10v10c0,5.522,4.478,10,10,10c5.522,0,10-4.477,10-10v-10
			C74,349.264,69.522,344.786,64,344.786z"/>
	</g>
</g>
<g>
	<g>
		<path fill="#da7b93" d="M306.868,247.149c-1.206-3.741-2.764-7.396-4.631-10.86c-2.619-4.862-8.683-6.681-13.546-4.062
			c-4.862,2.619-6.681,8.684-4.062,13.546c1.292,2.397,2.37,4.924,3.204,7.512c1.365,4.236,5.291,6.935,9.516,6.935
			c1.017,0,2.051-0.156,3.07-0.485C305.675,258.041,308.563,252.406,306.868,247.149z"/>
	</g>
</g>
<g>
	<g>
		<path fill="#da7b93" d="M64,284.786c-5.522,0-10,4.478-10,10v10c0,5.523,4.478,10,10,10c5.522,0,10-4.478,10-10v-10
			C74,289.264,69.522,284.786,64,284.786z"/>
	</g>
</g>
<g>
	<g>
		<path fill="#da7b93" d="M124.847,202h-5.693c-1.688,0-3.394,0.065-5.069,0.194c-5.507,0.425-9.626,5.232-9.202,10.739
			c0.404,5.245,4.785,9.232,9.96,9.232c0.258-0.001,0.519-0.011,0.779-0.03c1.166-0.09,2.354-0.136,3.532-0.136h5.693
			c5.522,0,10-4.478,10-10C134.847,206.477,130.369,202,124.847,202z"/>
	</g>
</g>
<g>
	<g>
		<path fill="#da7b93" d="M300,349.938c-5.522,0-10,4.478-10,10v10c0,5.522,4.478,10,10,10c5.522,0,10-4.478,10-10v-10
			C310,354.416,305.522,349.938,300,349.938z"/>
	</g>
</g>
<g>
	<g>
		<path fill="#da7b93" d="M298.217,410.04c-4.867-2.605-10.929-0.774-13.537,4.094c-1.283,2.396-2.796,4.692-4.496,6.826
			c-3.442,4.318-2.731,10.61,1.588,14.053c1.842,1.468,4.041,2.18,6.226,2.18c2.939,0,5.853-1.29,7.827-3.768
			c2.451-3.076,4.634-6.39,6.486-9.848C304.918,418.708,303.085,412.647,298.217,410.04z"/>
	</g>
</g>
<g>
	<g>
		<path fill="#da7b93" d="M300,289.938c-5.522,0-10,4.478-10,10v10c0,5.522,4.478,10,10,10c5.522,0,10-4.478,10-10v-10
			C310,294.416,305.522,289.938,300,289.938z"/>
	</g>
</g>
<g>
	<g>
		<path fill="#da7b93" d="M244.427,438h-10c-5.522,0-10,4.478-10,10c0,5.522,4.478,10,10,10h10c5.522,0,10-4.478,10-10
			C254.427,442.478,249.949,438,244.427,438z"/>
	</g>
</g>
<g>
	<g>
		<path fill="#da7b93" d="M255.939,202.943c-3.639-0.625-7.37-0.942-11.093-0.943h-10c-5.522,0-10,4.478-10,10c0,5.522,4.478,10,10,10h9.997
			c2.591,0.001,5.186,0.221,7.711,0.654c0.573,0.099,1.143,0.146,1.704,0.146c4.78,0,9.008-3.439,9.844-8.31
			C265.037,209.048,261.382,203.878,255.939,202.943z"/>
	</g>
</g>
<g>
	<g>
		<path fill="#da7b93" d="M184.847,202h-10c-5.522,0-10,4.478-10,10c0,5.522,4.478,10,10,10h10c5.522,0,10-4.478,10-10
			C194.847,206.478,190.369,202,184.847,202z"/>
	</g>
</g>
<g>
	<g>
		<path fill="#da7b93" d="M184.427,438h-10c-5.522,0-10,4.478-10,10c0,5.522,4.478,10,10,10h10c5.522,0,10-4.478,10-10
			C194.427,442.478,189.949,438,184.427,438z"/>
	</g>
</g>
<g>
</g>
<g>
</g>
<g>
</g>
<g>
</g>
<g>
</g>
<g>
</g>
<g>
</g>
<g>
</g>
<g>
</g>
<g>
</g>
<g>
</g>
<g>
</g>
<g>
</g>
<g>
</g>
<g>
</g>
</svg>
