<svg xmlns="http://www.w3.org/2000/svg" width="41" height="41" viewBox="0 0 41 41"><g><g><path fill="#da7b93" d="M28.508 26.347v5.524a5.612 5.612 0 0 1-5.606 5.606h-7.845l-.002 2.723a.798.798 0 0 1-.8.8.803.803 0 0 1-.567-.234l-3.29-3.29H5.606A5.612 5.612 0 0 1 0 31.872V19.539a5.611 5.611 0 0 1 5.605-5.605h8.088a.8.8 0 1 1 0 1.601H5.605a4.008 4.008 0 0 0-4.003 4.004V31.87a4.01 4.01 0 0 0 4.003 4.004h5.204a.8.8 0 0 1 .734.482l1.912 1.91v-1.592a.8.8 0 0 1 .801-.8h8.646a4.01 4.01 0 0 0 4.004-4.004v-5.524a.8.8 0 1 1 1.602 0zM41 11.639c0 1.858-.425 3.637-1.265 5.281a11.764 11.764 0 0 1-3.06 3.773v4.633a.803.803 0 0 1-.8.8.8.8 0 0 1-.566-.235L32.315 22.9c-.96.252-1.952.379-2.954.379h-2.027c-6.417 0-11.639-5.222-11.639-11.639C15.695 5.222 20.917 0 27.335 0h2.026c6.418 0 11.64 5.222 11.64 11.639zm-1.602 0c0-5.534-4.502-10.037-10.037-10.037h-2.027c-5.534 0-10.037 4.503-10.037 10.037 0 5.535 4.503 10.037 10.037 10.037h2.027c1.006 0 2-.148 2.952-.441a.804.804 0 0 1 .802.198l1.96 1.96v-3.091c0-.252.117-.489.318-.641a9.957 9.957 0 0 0 4.005-8.022zm-10.025.656v1.861a.801.801 0 0 1-1.602 0v-1.925c0-.717.491-1.327 1.194-1.484a1.782 1.782 0 0 0 1.391-1.875A1.789 1.789 0 0 0 26.783 9a.8.8 0 1 1-1.601 0c0-.937.392-1.84 1.077-2.48a3.372 3.372 0 0 1 2.551-.903 3.4 3.4 0 0 1 3.144 3.145 3.371 3.371 0 0 1-2.581 3.532zm0 5.029a.804.804 0 0 1-1.367.567.808.808 0 0 1-.235-.567.804.804 0 0 1 1.367-.567.81.81 0 0 1 .235.567zm-6.55 8.302a.8.8 0 0 1-.801.8H5.125a.8.8 0 1 1 0-1.601h16.897a.8.8 0 0 1 .8.8zm0 4.483a.804.804 0 0 1-1.367.567.807.807 0 0 1-.235-.567.804.804 0 0 1 .8-.8c.211 0 .418.086.567.234a.805.805 0 0 1 .234.566zm-3.15 0a.8.8 0 0 1-.801.8H5.125a.8.8 0 1 1 0-1.6h13.747c.442 0 .8.358.8.8zm-2.056-8.969a.8.8 0 0 1-.8.8H5.124a.8.8 0 1 1 0-1.6h11.691c.443 0 .801.358.801.8z"/></g></g></svg>