<?xml version="1.0" encoding="UTF-8"?> <svg xmlns="http://www.w3.org/2000/svg" width="32" height="26" viewBox="0 0 32 26" fill="none">
 <path d="M6.8 0.799994C9.4 0.799994 11.3667 1.86666 12.7 3.99999C13.8333 5.79999 14.4 8 14.4 10.6C14.4 13.9333 13.5333 16.9333 11.8 19.6C10.1333 22.2667 7.56667 24.4 4.1 26L3.2 24.2C5.26667 23.3333 7.03333 21.9667 8.5 20.1C10.0333 18.2333 10.8 16.3333 10.8 14.4C10.8 13.6 10.7 12.9 10.5 12.3C9.43333 13.1667 8.2 13.6 6.8 13.6C5 13.6 3.46667 13.0333 2.2 11.9C1 10.7 0.4 9.13333 0.4 7.19999C0.4 5.39999 1 3.9 2.2 2.7C3.46667 1.43333 5 0.799994 6.8 0.799994ZM23.8 0.799994C26.4 0.799994 28.3667 1.86666 29.7 3.99999C30.8333 5.79999 31.4 8 31.4 10.6C31.4 13.9333 30.5333 16.9333 28.8 19.6C27.1333 22.2667 24.5667 24.4 21.1 26L20.2 24.2C22.2667 23.3333 24.0333 21.9667 25.5 20.1C27.0333 18.2333 27.8 16.3333 27.8 14.4C27.8 13.6 27.7 12.9 27.5 12.3C26.4333 13.1667 25.2 13.6 23.8 13.6C22 13.6 20.4667 13.0333 19.2 11.9C18 10.7 17.4 9.13333 17.4 7.19999C17.4 5.39999 18 3.9 19.2 2.7C20.4667 1.43333 22 0.799994 23.8 0.799994Z" fill="#da7b93"></path> </svg> 