<?xml version="1.0" encoding="UTF-8"?> 
<svg xmlns="http://www.w3.org/2000/svg" width="144" height="48" viewBox="0 0 144 48" fill="none">
 <path d="M79.574 20H81.51L74.382 11.574L81.048 4.6H79.178L70.136 13.906V4.6H68.508V20H70.136V15.952L73.282 12.762L79.574 20ZM88.0115 20.11C91.3995 20.11 93.8855 17.646 93.8855 14.214C93.8855 10.782 91.3995 8.34 88.0115 8.34C84.6235 8.34 82.1155 10.782 82.1155 14.214C82.1155 17.646 84.6235 20.11 88.0115 20.11ZM88.0115 18.724C85.5475 18.724 83.6995 16.92 83.6995 14.214C83.6995 11.508 85.5475 9.704 88.0115 9.704C90.4755 9.704 92.3015 11.508 92.3015 14.214C92.3015 16.92 90.4755 18.724 88.0115 18.724ZM98.5705 10.694V8.428H97.0745V20H98.6365V14.104C98.6365 11.376 100.11 9.836 102.53 9.836C102.64 9.836 102.772 9.858 102.904 9.858V8.34C100.77 8.34 99.2965 9.154 98.5705 10.694ZM110.355 20.11C113.743 20.11 116.229 17.646 116.229 14.214C116.229 10.782 113.743 8.34 110.355 8.34C106.967 8.34 104.459 10.782 104.459 14.214C104.459 17.646 106.967 20.11 110.355 20.11ZM110.355 18.724C107.891 18.724 106.043 16.92 106.043 14.214C106.043 11.508 107.891 9.704 110.355 9.704C112.819 9.704 114.645 11.508 114.645 14.214C114.645 16.92 112.819 18.724 110.355 18.724ZM119.418 20H120.98V3.676H119.418V20ZM79.772 29.6V42.096L69.85 29.6H68.508V45H70.136V32.504L80.036 45H81.378V29.6H79.772ZM90.1225 33.34C88.2965 33.34 86.5805 33.912 85.4145 34.902L86.1185 36.068C87.0645 35.232 88.4725 34.704 89.9685 34.704C92.1245 34.704 93.2465 35.782 93.2465 37.762V38.466H89.5725C86.2505 38.466 85.1065 39.962 85.1065 41.744C85.1065 43.746 86.7125 45.11 89.3305 45.11C91.2445 45.11 92.6085 44.384 93.3125 43.196V45H94.8085V37.828C94.8085 34.836 93.1145 33.34 90.1225 33.34ZM89.5725 43.878C87.7245 43.878 86.6465 43.042 86.6465 41.7C86.6465 40.512 87.3725 39.632 89.6165 39.632H93.2465V41.524C92.6305 43.042 91.3325 43.878 89.5725 43.878ZM104.595 43.174C104.155 43.57 103.517 43.768 102.879 43.768C101.581 43.768 100.877 43.02 100.877 41.656V34.748H104.397V33.428H100.877V30.898H99.315V33.428H97.247V34.748H99.315V41.744C99.315 43.878 100.525 45.11 102.703 45.11C103.605 45.11 104.529 44.846 105.145 44.296L104.595 43.174ZM112.037 33.34C110.211 33.34 108.495 33.912 107.329 34.902L108.033 36.068C108.979 35.232 110.387 34.704 111.883 34.704C114.039 34.704 115.161 35.782 115.161 37.762V38.466H111.487C108.165 38.466 107.021 39.962 107.021 41.744C107.021 43.746 108.627 45.11 111.245 45.11C113.159 45.11 114.523 44.384 115.227 43.196V45H116.723V37.828C116.723 34.836 115.029 33.34 112.037 33.34ZM111.487 43.878C109.639 43.878 108.561 43.042 108.561 41.7C108.561 40.512 109.287 39.632 111.531 39.632H115.161V41.524C114.545 43.042 113.247 43.878 111.487 43.878ZM120.965 45H122.527V28.676H120.965V45ZM127.665 30.898C128.325 30.898 128.809 30.392 128.809 29.754C128.809 29.16 128.303 28.676 127.665 28.676C127.027 28.676 126.521 29.182 126.521 29.776C126.521 30.392 127.027 30.898 127.665 30.898ZM126.873 45H128.435V33.428H126.873V45Z" fill="#fff"></path>
  <g clip-path="url(#clip0)">
   <path fill-rule="evenodd" clip-rule="evenodd" d="M16.4565 17.0436L15.8102 16.894V32.9708C15.7743 33.1454 15.736 33.3199 15.6943 33.488C14.6886 37.7763 12.5661 39.9767 9.3269 40.0892V40.9578H22.1597L22.1817 40.1328C19.3289 39.9944 17.4205 37.6359 16.4565 33.0575V17.0436Z" fill="#fff"></path>
    <path fill-rule="evenodd" clip-rule="evenodd" d="M57.871 43.1114C50.6152 43.5827 44.6502 39.3492 38.8307 33.6905L20.3219 13.7154C15.1394 7.87162 7.02358 5.245 0 9.57151C5.53292 8.77509 7.84362 10.1701 11.7295 13.3407C20.0405 22.291 28.1934 31.271 36.7076 40.0002C41.8948 45.318 51.3101 46.0545 57.871 43.1114Z" fill="#da7b93"></path>
     <path fill-rule="evenodd" clip-rule="evenodd" d="M35.7579 15.8162C35.6467 17.1088 35.9097 18.6408 36.5467 20.412C39.6386 13.8667 49.0789 16.32 50.112 7.65588C50.3437 5.82684 50.1333 4.21596 49.4808 2.82324C45.6719 9.38137 36.8826 7.21957 35.7556 15.8162H35.7579Z" fill="#fff"></path>
      <path fill-rule="evenodd" clip-rule="evenodd" d="M55.3548 27.3867C56.1117 27.3866 56.8516 27.612 57.481 28.0343C58.1104 28.4566 58.601 29.057 58.8907 29.7594C59.1805 30.4619 59.2563 31.2348 59.1088 31.9806C58.9612 32.7263 58.5967 33.4114 58.0616 33.949C57.5264 34.4867 56.8445 34.8529 56.1022 35.0013C55.3598 35.1497 54.5904 35.0736 53.8911 34.7826C53.1918 34.4917 52.5941 33.999 52.1735 33.3668C51.753 32.7346 51.5286 31.9913 51.5286 31.231C51.5286 30.2115 51.9317 29.2338 52.6492 28.5129C53.3668 27.792 54.34 27.3869 55.3548 27.3867Z" fill="#da7b93"></path> </g> <defs> <clipPath id="clip0"> <rect width="61" height="42.3529" fill="white" transform="translate(0 2.82324)"></rect> </clipPath> </defs> </svg> 