<?xml version="1.0" encoding="UTF-8"?> <svg xmlns="http://www.w3.org/2000/svg" width="60" height="60" viewBox="0 0 60 60" fill="none"> <circle cx="30" cy="30" r="30" fill="white"></circle> <g clip-path="url(#clip0)"> <path d="M44.9998 21.6711C44.9998 21.4911 44.9282 21.3184 44.801 21.1912L38.8088 15.199C38.5438 14.934 38.114 14.934 37.8489 15.199L36.3726 16.6754L35.4028 15.7056C35.204 15.5068 34.8817 15.5068 34.6829 15.7056C34.4841 15.9044 34.4841 16.2267 34.6829 16.4254L35.6527 17.3952L34.4783 18.5697L33.5085 17.5999C33.3097 17.4011 32.9874 17.4011 32.7887 17.5999C32.5899 17.7987 32.5899 18.121 32.7887 18.3197L33.7585 19.2895L32.584 20.4639L31.6142 19.4941C31.4154 19.2953 31.0931 19.2953 30.8944 19.4941C30.6956 19.6929 30.6956 20.0152 30.8944 20.214L31.8642 21.1838L30.6898 22.3582L29.72 21.3884C29.5212 21.1896 29.1989 21.1896 29.0001 21.3884C28.8014 21.5872 28.8014 21.9095 29.0001 22.1082L29.9699 23.078L28.7955 24.2525L27.8257 23.2827C27.6269 23.0839 27.3046 23.0839 27.1059 23.2827C26.9071 23.4814 26.9071 23.8038 27.1059 24.0025L28.0757 24.9723L26.9013 26.1467L25.9315 25.1769C25.7327 24.9781 25.4103 24.9781 25.2116 25.1769C25.0128 25.3757 25.0128 25.698 25.2116 25.8967L26.1814 26.8665L24.705 28.3429C24.5778 28.4702 24.5062 28.6429 24.5062 28.8228C24.5062 29.0028 24.5778 29.1755 24.705 29.3028L25.8839 30.4817L15.7512 40.6145C14.7493 41.6165 14.7493 43.2468 15.7512 44.2488C16.2522 44.7497 16.9103 45.0002 17.5683 45.0002C18.2264 45.0002 18.8845 44.7497 19.3854 44.2488L29.5181 34.1161L30.697 35.295C30.8296 35.4275 31.0033 35.4938 31.1769 35.4938C31.3506 35.4938 31.5244 35.4275 31.6569 35.295L33.1332 33.8186L34.1997 34.885C34.2991 34.9844 34.4294 35.0341 34.5596 35.0341C34.6899 35.0341 34.8202 34.9845 34.9195 34.885C35.1183 34.6862 35.1183 34.3639 34.9195 34.1652L33.8531 33.0988L35.0275 31.9244L36.094 32.9908C36.1933 33.0902 36.3236 33.1399 36.4539 33.1399C36.5841 33.1399 36.7144 33.0903 36.8138 32.9908C37.0126 32.792 37.0126 32.4697 36.8138 32.271L35.7473 31.2046L36.9219 30.0301L37.9884 31.0964C38.0877 31.1958 38.218 31.2455 38.3483 31.2455C38.4785 31.2455 38.6088 31.1959 38.7082 31.0964C38.907 30.8976 38.907 30.5753 38.7082 30.3766L37.6417 29.3102L38.8162 28.1358L39.8825 29.2022C39.9819 29.3017 40.1122 29.3514 40.2425 29.3514C40.3727 29.3514 40.503 29.3017 40.6024 29.2022C40.8012 29.0034 40.8012 28.6811 40.6024 28.4824L39.536 27.416L40.7104 26.2415L41.7768 27.308C41.8762 27.4074 42.0065 27.4571 42.1367 27.4571C42.267 27.4571 42.3973 27.4074 42.4966 27.308C42.6954 27.1092 42.6954 26.7869 42.4966 26.5881L41.4303 25.5217L42.6047 24.3473L43.6711 25.4136C43.7705 25.513 43.9008 25.5628 44.0311 25.5628C44.1613 25.5628 44.2916 25.5131 44.391 25.4136C44.5898 25.2149 44.5898 24.8925 44.391 24.6938L43.3245 23.6274L44.8009 22.1511C44.9282 22.0237 44.9998 21.8511 44.9998 21.6711V21.6711ZM18.4256 43.2889C17.953 43.7615 17.1838 43.7616 16.7111 43.2889C16.2383 42.8162 16.2383 42.0471 16.7111 41.5743L26.8438 31.4416L28.5584 33.1562L18.4256 43.2889V43.2889ZM42.3648 22.6675L41.9749 22.2776C41.7761 22.0788 41.4537 22.0788 41.255 22.2776C41.0562 22.4764 41.0562 22.7987 41.255 22.9974L41.6449 23.3873L40.4705 24.5617L40.0806 24.1718C39.8819 23.973 39.5596 23.973 39.3608 24.1718C39.162 24.3706 39.162 24.6929 39.3608 24.8917L39.7507 25.2816L38.5762 26.456L38.1863 26.0661C37.9876 25.8673 37.6653 25.8673 37.4665 26.0661C37.2677 26.2649 37.2677 26.5872 37.4665 26.7859L37.8564 27.1758L36.6819 28.3503L36.292 27.9604C36.0932 27.7616 35.7709 27.7616 35.5722 27.9604C35.3734 28.1592 35.3734 28.4815 35.5722 28.6803L35.9621 29.0702L34.7877 30.2446L34.3977 29.8547C34.1989 29.6559 33.8766 29.6559 33.6779 29.8547C33.4791 30.0535 33.4791 30.3758 33.6779 30.5745L34.0678 30.9644L32.8934 32.1389L32.5035 31.7489C32.3047 31.5501 31.9824 31.5501 31.7836 31.7489C31.5848 31.9477 31.5848 32.2701 31.7836 32.4688L32.1736 32.8587L31.1772 33.8551L26.1448 28.8228L27.1413 27.8264L27.6279 28.3129C27.7272 28.4123 27.8575 28.462 27.9878 28.462C28.118 28.462 28.2483 28.4124 28.3477 28.3129C28.5465 28.1141 28.5465 27.7918 28.3477 27.5931L27.8611 27.1065L29.0356 25.9321L29.5221 26.4187C29.6215 26.518 29.7518 26.5678 29.882 26.5678C30.0123 26.5678 30.1426 26.5181 30.242 26.4187C30.4408 26.2199 30.4408 25.8976 30.242 25.6988L29.7554 25.2123L30.9298 24.0378L31.4164 24.5244C31.5158 24.6238 31.6461 24.6735 31.7763 24.6735C31.9066 24.6735 32.0369 24.6238 32.1362 24.5244C32.335 24.3256 32.335 24.0033 32.1362 23.8046L31.6497 23.318L32.8241 22.1436L33.3107 22.6301C33.41 22.7295 33.5403 22.7793 33.6706 22.7793C33.8008 22.7793 33.9311 22.7296 34.0305 22.6301C34.2293 22.4314 34.2293 22.109 34.0305 21.9103L33.5439 21.4238L34.7184 20.2493L35.2049 20.7359C35.3043 20.8352 35.4346 20.885 35.5648 20.885C35.6951 20.885 35.8254 20.8353 35.9248 20.7359C36.1235 20.5371 36.1235 20.2148 35.9248 20.0161L35.4382 19.5295L36.6126 18.3551L37.0992 18.8416C37.1985 18.941 37.3289 18.9907 37.4591 18.9907C37.5893 18.9907 37.7197 18.9411 37.819 18.8416C38.0178 18.6428 38.0178 18.3205 37.819 18.1218L37.3325 17.6352L38.3289 16.6388L43.3612 21.6711L42.3648 22.6675V22.6675Z" fill="#202020"></path> <path d="M39.4893 21.0199C39.623 21.0199 39.7539 20.9656 39.849 20.8713C39.9433 20.7762 39.9983 20.6452 39.9983 20.5109C39.9983 20.3772 39.9433 20.2455 39.849 20.1511C39.7539 20.0561 39.623 20.0018 39.4893 20.0018C39.3549 20.0018 39.2239 20.0561 39.1289 20.1511C39.0345 20.2455 38.9802 20.3772 38.9802 20.5109C38.9802 20.6452 39.0345 20.7762 39.1289 20.8713C39.2239 20.9656 39.3549 21.0199 39.4893 21.0199Z" fill="#202020"></path> <path d="M37.5949 21.8961C37.4605 21.8961 37.3295 21.9504 37.2345 22.0454C37.1402 22.1405 37.0852 22.2714 37.0852 22.4051C37.0852 22.5395 37.1402 22.6705 37.2345 22.7655C37.3295 22.8599 37.4605 22.9142 37.5949 22.9142C37.7286 22.9142 37.8596 22.8599 37.9546 22.7655C38.049 22.6705 38.1033 22.5395 38.1033 22.4051C38.1033 22.2714 38.049 22.1405 37.9546 22.0454C37.8597 21.9504 37.7287 21.8961 37.5949 21.8961Z" fill="#202020"></path> <path d="M35.7009 23.7904C35.5665 23.7904 35.4356 23.8447 35.3405 23.9397C35.2462 24.0347 35.1919 24.1657 35.1919 24.2994C35.1919 24.4338 35.2462 24.5648 35.3405 24.6598C35.4356 24.7542 35.5665 24.8085 35.7009 24.8085C35.8346 24.8085 35.9656 24.7542 36.0606 24.6598C36.155 24.5648 36.21 24.4338 36.21 24.2994C36.21 24.1657 36.155 24.0347 36.0606 23.9397C35.9656 23.8447 35.8346 23.7904 35.7009 23.7904Z" fill="#202020"></path> <path d="M33.8057 25.6846C33.672 25.6846 33.541 25.7389 33.4459 25.8339C33.3509 25.9289 33.2966 26.0599 33.2966 26.1936C33.2966 26.328 33.3509 26.459 33.4459 26.554C33.541 26.6483 33.672 26.7026 33.8057 26.7026C33.94 26.7026 34.071 26.6483 34.1661 26.554C34.2604 26.459 34.3147 26.328 34.3147 26.1936C34.3147 26.0599 34.2604 25.9289 34.1661 25.8339C34.071 25.7389 33.9401 25.6846 33.8057 25.6846Z" fill="#202020"></path> <path d="M31.9116 27.5789C31.7779 27.5789 31.6469 27.6332 31.5519 27.7282C31.4576 27.8232 31.4026 27.9542 31.4026 28.0879C31.4026 28.2223 31.4576 28.3533 31.5519 28.4483C31.6469 28.5426 31.7779 28.5969 31.9116 28.5969C32.046 28.5969 32.177 28.5426 32.272 28.4483C32.3664 28.3533 32.4207 28.2223 32.4207 28.0879C32.4207 27.9542 32.3664 27.8232 32.272 27.7282C32.1769 27.6332 32.046 27.5789 31.9116 27.5789V27.5789Z" fill="#202020"></path> <path d="M30.0173 29.4731C29.8836 29.4731 29.7526 29.5274 29.6576 29.6225C29.5626 29.7175 29.5083 29.8485 29.5083 29.9822C29.5083 30.1166 29.5626 30.2476 29.6576 30.3426C29.7526 30.4369 29.8836 30.4912 30.0173 30.4912C30.1517 30.4912 30.2827 30.4369 30.3777 30.3426C30.4721 30.2476 30.527 30.1166 30.527 29.9822C30.527 29.8485 30.4721 29.7175 30.3777 29.6225C30.2828 29.5274 30.1517 29.4731 30.0173 29.4731Z" fill="#202020"></path> </g> <defs> <clipPath id="clip0"> <rect width="30" height="30" fill="white" transform="translate(15 15)"></rect> </clipPath> </defs> </svg> 