<?xml version="1.0" encoding="UTF-8"?> <svg xmlns="http://www.w3.org/2000/svg" width="60" height="60" viewBox="0 0 60 60" fill="none"> <circle cx="30" cy="30" r="30" fill="white"></circle> <path d="M42.9216 30.7567H36.9243C36.5331 30.7567 36.2125 31.067 36.1996 31.4581C36.1919 31.6936 36.177 31.9101 36.154 32.12C35.8002 35.3538 33.0827 37.7924 29.8328 37.7924C29.6011 37.7924 29.3666 37.7795 29.1356 37.7543C27.4576 37.5707 25.9654 36.726 24.934 35.3758C24.1081 34.2944 23.6009 32.8949 23.5062 31.4349C23.4814 31.0535 23.1648 30.7567 22.7827 30.7567H17.0784C15.9324 30.7567 15 31.6891 15 32.8351V42.0721C15 43.2182 15.9324 44.1505 17.0784 44.1505H42.9216C44.0676 44.1505 45 43.2182 45 42.0721V32.8351C45 31.6891 44.0676 30.7567 42.9216 30.7567ZM43.5499 42.0721C43.5499 42.4186 43.2681 42.7005 42.9216 42.7005H17.0784C16.7319 42.7005 16.4501 42.4186 16.4501 42.0721V32.8351C16.4501 32.4887 16.7319 32.2068 17.0784 32.2068H22.1287C22.3385 33.7027 22.9142 35.1202 23.7818 36.256C25.0564 37.9246 26.9016 38.9686 28.978 39.1956C29.2611 39.2267 29.5487 39.2423 29.8329 39.2423C33.8239 39.2423 37.1612 36.2481 37.5955 32.2777C37.5981 32.2541 37.6006 32.2304 37.603 32.2068H42.9217C43.2682 32.2068 43.55 32.4887 43.55 32.8351V42.0721H43.5499Z" fill="#202020"></path> <path d="M29.2933 36.3127C29.2933 36.3128 29.2934 36.3128 29.2935 36.3128C29.4727 36.3323 29.6541 36.3423 29.8328 36.3423C32.3415 36.3423 34.4394 34.4593 34.7125 31.9622C34.9 30.2475 34.4419 28.62 33.9987 27.0461C33.2069 24.2339 32.459 21.5777 34.7553 17.9736C35.1191 17.4028 35.0182 16.6591 34.5156 16.2055C34.2612 15.976 33.9325 15.8496 33.59 15.8496C33.28 15.8496 32.9755 15.9557 32.7324 16.1481C29.9237 18.3725 27.8 21.1606 26.4199 24.4348C25.0223 27.7508 24.9327 30.2817 24.9385 30.9784C24.9623 33.8413 26.7531 36.0349 29.2933 36.3127ZM33.321 17.5367C30.9376 21.5246 31.821 24.662 32.6028 27.4391C33.0272 28.9461 33.4279 30.3695 33.271 31.8045C33.0785 33.5648 31.6004 34.8922 29.8328 34.8922C29.7064 34.8922 29.578 34.8851 29.4507 34.8712L29.4509 34.8713C27.3672 34.6433 26.4027 32.6872 26.3884 30.9662C26.3661 28.2862 27.7966 22.0951 33.321 17.5367Z" fill="#202020"></path> <path d="M28.4625 32.1721C28.467 32.1705 28.4714 32.1689 28.4758 32.1673C28.8064 32.048 28.9999 31.699 28.917 31.3575C28.6489 30.2533 28.8736 28.9029 29.0245 28.3523C29.1278 27.9774 28.908 27.5897 28.5332 27.4857C28.1583 27.3817 27.7697 27.6018 27.6657 27.9768C27.6372 28.0797 27.1296 29.9609 27.5472 31.6867C27.6444 32.0889 28.0736 32.3132 28.4625 32.1721Z" fill="#202020"></path> <path d="M29.0501 33.8705C29.4394 33.8705 29.755 33.5549 29.755 33.1656C29.755 32.7763 29.4394 32.4607 29.0501 32.4607C28.6608 32.4607 28.3452 32.7763 28.3452 33.1656C28.3452 33.5549 28.6608 33.8705 29.0501 33.8705Z" fill="#202020"></path> </svg> 