<?xml version="1.0" encoding="UTF-8"?> <svg xmlns="http://www.w3.org/2000/svg" width="60" height="60" viewBox="0 0 60 60" fill="none"> <circle cx="30" cy="30" r="30" fill="white"></circle> <g clip-path="url(#clip0)"> <path d="M36.9859 19.787L23.0508 18.0566C22.7728 18.0246 22.4911 18.0084 22.2135 18.0084C18.236 18.0084 15 21.2499 15 25.2342V25.3838C15 28.0784 16.4803 30.4328 18.6688 31.6751L20.5958 39.4652C20.8089 40.3268 21.3449 41.054 22.1049 41.5125C22.6298 41.8292 23.218 41.9917 23.8156 41.9917C24.0834 41.9916 24.3531 41.959 24.6198 41.8931L24.6727 41.88C25.5344 41.6669 26.2615 41.131 26.72 40.371C27.1786 39.6109 27.3138 38.7178 27.1006 37.8562L25.7093 32.2314L36.9859 30.8312C37.2958 30.7927 37.5285 30.5295 37.5285 30.2172V20.401C37.5284 20.0887 37.2957 19.8254 36.9859 19.787V19.787ZM25.8993 38.1533C26.0331 38.6942 25.9482 39.2547 25.6604 39.7316C25.3726 40.2086 24.9163 40.545 24.3754 40.6787L24.3224 40.6918C23.7818 40.8257 23.2212 40.7408 22.7442 40.4529C22.2673 40.1651 21.9309 39.7087 21.7972 39.168L20.0963 32.2918C20.7661 32.4982 21.4771 32.6096 22.2136 32.6096C22.4913 32.6096 22.773 32.5934 23.0564 32.5607L24.4725 32.3849L25.8993 38.1533ZM36.2909 29.6704L22.9093 31.332C22.6781 31.3586 22.444 31.3721 22.2134 31.3721C18.9183 31.3721 16.2375 28.6858 16.2375 25.3838V25.2342C16.2375 21.9323 18.9183 19.2459 22.2135 19.2459C22.4441 19.2459 22.6782 19.2595 22.9038 19.2854L36.291 20.9477V29.6704H36.2909Z" fill="#202020"></path> <path d="M18.4573 25.309C18.4573 27.5783 20.3035 29.4246 22.5729 29.4246C24.8423 29.4246 26.6885 27.5783 26.6885 25.309C26.6885 23.0396 24.8422 21.1934 22.5729 21.1934C20.3035 21.1934 18.4573 23.0396 18.4573 25.309ZM25.451 25.309C25.451 26.8959 24.1598 28.1871 22.5729 28.1871C20.9859 28.1871 19.6948 26.896 19.6948 25.309C19.6948 23.7219 20.9859 22.4309 22.5729 22.4309C24.1598 22.4309 25.451 23.722 25.451 25.309Z" fill="#202020"></path> <path d="M39.0195 23.3565C39.3792 23.3565 39.5525 23.5501 39.8797 23.9529C40.2409 24.3976 40.7356 25.0065 41.7004 25.0065C42.6651 25.0065 43.1598 24.3976 43.5211 23.9529C43.8483 23.5501 44.0215 23.3565 44.3812 23.3565C44.7229 23.3565 45 23.0796 45 22.7378C45 22.396 44.7229 22.119 44.3812 22.119C43.4165 22.119 42.9218 22.728 42.5605 23.1726C42.2333 23.5755 42.0601 23.769 41.7004 23.769C41.3407 23.769 41.1674 23.5754 40.8402 23.1726C40.4791 22.728 39.9843 22.119 39.0196 22.119C38.6779 22.119 38.4009 22.396 38.4009 22.7378C38.4009 23.0796 38.6778 23.3565 39.0195 23.3565V23.3565Z" fill="#202020"></path> <path d="M44.3812 25.8564C43.4165 25.8564 42.9218 26.4654 42.5605 26.9101C42.2333 27.3129 42.0601 27.5064 41.7004 27.5064C41.3407 27.5064 41.1674 27.3128 40.8402 26.9101C40.4791 26.4654 39.9843 25.8564 39.0196 25.8564C38.6779 25.8564 38.4009 26.1334 38.4009 26.4752C38.4009 26.817 38.6779 27.0939 39.0196 27.0939C39.3793 27.0939 39.5526 27.2876 39.8798 27.6903C40.241 28.135 40.7357 28.7439 41.7005 28.7439C42.6652 28.7439 43.1599 28.135 43.5212 27.6903C43.8484 27.2875 44.0216 27.0939 44.3813 27.0939C44.723 27.0939 45.0001 26.817 45.0001 26.4752C45.0001 26.1334 44.7229 25.8564 44.3812 25.8564V25.8564Z" fill="#202020"></path> </g> <defs> <clipPath id="clip0"> <rect width="30" height="30" fill="white" transform="translate(15 15)"></rect> </clipPath> </defs> </svg> 